<mxfile host="app.diagrams.net" modified="2021-09-14T07:10:38.527Z" agent="5.0 (Windows NT 10.0; Win64; x64) AppleWebKit/537.36 (KHTML, like Gecko) Chrome/93.0.4577.63 Safari/537.36" etag="AMcHLqY9v0ObJ-pkNqmy" version="15.2.4" type="github">
  <diagram id="MFdtiCiac8Dv_De7q1mj" name="Page-1">
    <mxGraphModel dx="1278" dy="547" grid="1" gridSize="10" guides="1" tooltips="1" connect="1" arrows="1" fold="1" page="1" pageScale="1" pageWidth="850" pageHeight="1100" math="0" shadow="0">
      <root>
        <mxCell id="0" />
        <mxCell id="1" parent="0" />
        <mxCell id="BktoveatB_MbzBk7YbDe-3" style="edgeStyle=orthogonalEdgeStyle;rounded=0;orthogonalLoop=1;jettySize=auto;html=1;" edge="1" parent="1" source="BktoveatB_MbzBk7YbDe-1">
          <mxGeometry relative="1" as="geometry">
            <mxPoint x="230" y="540" as="targetPoint" />
          </mxGeometry>
        </mxCell>
        <mxCell id="BktoveatB_MbzBk7YbDe-1" value="Case Creation" style="rounded=1;whiteSpace=wrap;html=1;" vertex="1" parent="1">
          <mxGeometry x="170" y="650" width="120" height="60" as="geometry" />
        </mxCell>
        <mxCell id="BktoveatB_MbzBk7YbDe-7" style="edgeStyle=orthogonalEdgeStyle;rounded=0;orthogonalLoop=1;jettySize=auto;html=1;entryX=-0.013;entryY=0.608;entryDx=0;entryDy=0;entryPerimeter=0;" edge="1" parent="1" source="BktoveatB_MbzBk7YbDe-2" target="BktoveatB_MbzBk7YbDe-6">
          <mxGeometry relative="1" as="geometry" />
        </mxCell>
        <mxCell id="BktoveatB_MbzBk7YbDe-2" value="modal will open. type, subject field can be changed. once it is updated, record type will change to diageo one case" style="rounded=1;whiteSpace=wrap;html=1;" vertex="1" parent="1">
          <mxGeometry x="140" y="410" width="190" height="120" as="geometry" />
        </mxCell>
        <mxCell id="BktoveatB_MbzBk7YbDe-5" value="Convert to Diageo One" style="text;html=1;strokeColor=none;fillColor=none;align=center;verticalAlign=middle;whiteSpace=wrap;rounded=0;" vertex="1" parent="1">
          <mxGeometry x="220" y="580" width="170" height="20" as="geometry" />
        </mxCell>
        <mxCell id="BktoveatB_MbzBk7YbDe-10" style="edgeStyle=orthogonalEdgeStyle;rounded=0;orthogonalLoop=1;jettySize=auto;html=1;" edge="1" parent="1" source="BktoveatB_MbzBk7YbDe-6">
          <mxGeometry relative="1" as="geometry">
            <mxPoint x="585" y="550" as="targetPoint" />
          </mxGeometry>
        </mxCell>
        <mxCell id="BktoveatB_MbzBk7YbDe-6" value="conver to diageo one quick action" style="rounded=1;whiteSpace=wrap;html=1;" vertex="1" parent="1">
          <mxGeometry x="510" y="420" width="150" height="80" as="geometry" />
        </mxCell>
        <mxCell id="BktoveatB_MbzBk7YbDe-8" value="Technical Flow" style="text;html=1;strokeColor=none;fillColor=none;align=center;verticalAlign=middle;whiteSpace=wrap;rounded=0;" vertex="1" parent="1">
          <mxGeometry x="350" y="430" width="100" height="20" as="geometry" />
        </mxCell>
        <mxCell id="BktoveatB_MbzBk7YbDe-13" style="edgeStyle=orthogonalEdgeStyle;rounded=0;orthogonalLoop=1;jettySize=auto;html=1;entryX=0.5;entryY=0;entryDx=0;entryDy=0;" edge="1" parent="1" source="BktoveatB_MbzBk7YbDe-9" target="BktoveatB_MbzBk7YbDe-11">
          <mxGeometry relative="1" as="geometry" />
        </mxCell>
        <mxCell id="BktoveatB_MbzBk7YbDe-9" value="From lightning component, event is passed to LWC compoenent." style="rounded=1;whiteSpace=wrap;html=1;" vertex="1" parent="1">
          <mxGeometry x="525" y="550" width="120" height="60" as="geometry" />
        </mxCell>
        <mxCell id="BktoveatB_MbzBk7YbDe-11" value="Data will be changed in LWC component." style="rounded=1;whiteSpace=wrap;html=1;" vertex="1" parent="1">
          <mxGeometry x="525" y="670" width="120" height="60" as="geometry" />
        </mxCell>
      </root>
    </mxGraphModel>
  </diagram>
</mxfile>
